<mxfile host="app.diagrams.net" modified="2022-09-21T13:43:08.739Z" agent="5.0 (Windows)" etag="SgYJBGScJmi1OOewdFM1" version="20.3.3" type="github">
  <diagram id="P09oVxaX69ZGMT8kRd53" name="Страница 1">
    <mxGraphModel dx="1422" dy="772" grid="1" gridSize="10" guides="1" tooltips="1" connect="1" arrows="1" fold="1" page="1" pageScale="1" pageWidth="827" pageHeight="1169" math="0" shadow="0">
      <root>
        <mxCell id="0" />
        <mxCell id="1" parent="0" />
        <mxCell id="YI7GslZMMDPhXBftqcw5-3" value="Guess the Number" style="strokeWidth=1;shadow=0;dashed=0;align=center;html=1;shape=mxgraph.mockup.containers.window;align=left;verticalAlign=top;spacingLeft=8;strokeColor2=#008cff;strokeColor3=#c4c4c4;fontColor=#666666;mainText=;fontSize=17;labelBackgroundColor=none;" vertex="1" parent="1">
          <mxGeometry x="40" y="40" width="720" height="400" as="geometry" />
        </mxCell>
        <mxCell id="YI7GslZMMDPhXBftqcw5-4" value="You win!" style="strokeWidth=1;shadow=0;dashed=0;align=center;html=1;shape=mxgraph.mockup.containers.rrect;rSize=0;strokeColor=#666666;fontColor=#666666;fontSize=17;verticalAlign=top;whiteSpace=wrap;fillColor=#ffffff;spacingTop=32;" vertex="1" parent="1">
          <mxGeometry x="80" y="920" width="250" height="160" as="geometry" />
        </mxCell>
        <mxCell id="YI7GslZMMDPhXBftqcw5-5" value="Result" style="strokeWidth=1;shadow=0;dashed=0;align=center;html=1;shape=mxgraph.mockup.containers.rrect;rSize=0;fontSize=17;fontColor=#666666;strokeColor=#666666;align=left;spacingLeft=8;fillColor=#ffffff;resizeWidth=1;" vertex="1" parent="YI7GslZMMDPhXBftqcw5-4">
          <mxGeometry width="250" height="30" relative="1" as="geometry" />
        </mxCell>
        <mxCell id="YI7GslZMMDPhXBftqcw5-6" value="" style="shape=ellipse;strokeColor=#008cff;resizable=0;fillColor=none;html=1;" vertex="1" parent="YI7GslZMMDPhXBftqcw5-5">
          <mxGeometry x="1" y="0.5" width="20" height="20" relative="1" as="geometry">
            <mxPoint x="-25" y="-10" as="offset" />
          </mxGeometry>
        </mxCell>
        <mxCell id="YI7GslZMMDPhXBftqcw5-7" value="OK" style="strokeWidth=1;shadow=0;dashed=0;align=center;html=1;shape=mxgraph.mockup.containers.rrect;rSize=0;fontSize=16;fontColor=#666666;strokeColor=#c4c4c4;resizable=0;whiteSpace=wrap;fillColor=#ffffff;" vertex="1" parent="YI7GslZMMDPhXBftqcw5-4">
          <mxGeometry x="0.5" y="1" width="120" height="25" relative="1" as="geometry">
            <mxPoint x="-60" y="-33" as="offset" />
          </mxGeometry>
        </mxCell>
        <mxCell id="YI7GslZMMDPhXBftqcw5-8" value="" style="strokeWidth=1;shadow=0;dashed=0;align=center;html=1;shape=mxgraph.mockup.forms.rrect;rSize=0;strokeColor=#999999;fillColor=#ffffff;recursiveResize=0;" vertex="1" parent="1">
          <mxGeometry x="310" y="195" width="150" height="90" as="geometry" />
        </mxCell>
        <mxCell id="YI7GslZMMDPhXBftqcw5-9" value="Simple" style="shape=ellipse;rSize=0;fillColor=#eeeeee;strokeColor=#999999;gradientColor=#cccccc;html=1;align=left;spacingLeft=4;fontSize=17;fontColor=#666666;labelPosition=right;" vertex="1" parent="YI7GslZMMDPhXBftqcw5-8">
          <mxGeometry x="8" y="7.5" width="15" height="15" as="geometry" />
        </mxCell>
        <mxCell id="YI7GslZMMDPhXBftqcw5-10" value="Medium" style="shape=ellipse;rSize=0;fillColor=#eeeeee;strokeColor=#999999;gradientColor=#cccccc;html=1;align=left;spacingLeft=4;fontSize=17;fontColor=#666666;labelPosition=right;" vertex="1" parent="YI7GslZMMDPhXBftqcw5-8">
          <mxGeometry x="8" y="37.5" width="15" height="15" as="geometry" />
        </mxCell>
        <mxCell id="YI7GslZMMDPhXBftqcw5-11" value="Hard" style="shape=ellipse;rSize=0;fillColor=#aaaaaa;strokeColor=#444444;gradientColor=#666666;html=1;align=left;spacingLeft=4;fontSize=17;fontColor=#008cff;labelPosition=right;" vertex="1" parent="YI7GslZMMDPhXBftqcw5-8">
          <mxGeometry x="8" y="67.5" width="15" height="15" as="geometry" />
        </mxCell>
        <mxCell id="YI7GslZMMDPhXBftqcw5-12" value="" style="shape=ellipse;fillColor=#444444;strokeColor=none;html=1;" vertex="1" parent="YI7GslZMMDPhXBftqcw5-11">
          <mxGeometry x="3" y="3" width="9" height="9" as="geometry" />
        </mxCell>
        <mxCell id="YI7GslZMMDPhXBftqcw5-14" value="Start Game" style="strokeWidth=1;shadow=0;dashed=0;align=center;html=1;shape=mxgraph.mockup.buttons.button;strokeColor=#666666;fontColor=#ffffff;mainText=;buttonStyle=round;fontSize=17;fontStyle=1;fillColor=#008cff;whiteSpace=wrap;" vertex="1" parent="1">
          <mxGeometry x="310" y="330" width="150" height="50" as="geometry" />
        </mxCell>
        <mxCell id="YI7GslZMMDPhXBftqcw5-15" value="Guess The Number" style="text;html=1;fontSize=24;fontStyle=5;verticalAlign=middle;align=center;strokeWidth=1;fontColor=#3333FF;" vertex="1" parent="1">
          <mxGeometry x="270" y="110" width="220" height="30" as="geometry" />
        </mxCell>
        <mxCell id="YI7GslZMMDPhXBftqcw5-16" value="Guess the Number" style="strokeWidth=1;shadow=0;dashed=0;align=center;html=1;shape=mxgraph.mockup.containers.window;align=left;verticalAlign=top;spacingLeft=8;strokeColor2=#008cff;strokeColor3=#c4c4c4;fontColor=#666666;mainText=;fontSize=17;labelBackgroundColor=none;" vertex="1" parent="1">
          <mxGeometry x="40" y="480" width="720" height="380" as="geometry" />
        </mxCell>
        <mxCell id="YI7GslZMMDPhXBftqcw5-17" value="Level of game" style="text;strokeColor=none;fillColor=none;html=1;fontSize=24;fontStyle=1;verticalAlign=middle;align=center;strokeWidth=1;fontColor=#3333FF;" vertex="1" parent="1">
          <mxGeometry x="280" y="160" width="210" height="30" as="geometry" />
        </mxCell>
        <UserObject label="Main menu" link="https://www.draw.io" id="YI7GslZMMDPhXBftqcw5-21">
          <mxCell style="text;html=1;strokeColor=none;fillColor=none;whiteSpace=wrap;align=center;verticalAlign=middle;fontColor=#0000EE;fontStyle=4;strokeWidth=1;" vertex="1" parent="1">
            <mxGeometry x="47" y="515" width="81" height="40" as="geometry" />
          </mxCell>
        </UserObject>
        <mxCell id="YI7GslZMMDPhXBftqcw5-23" value="&lt;font style=&quot;font-size: 12px;&quot;&gt;&lt;span class=&quot;VIiyi&quot; lang=&quot;en&quot;&gt;&lt;span class=&quot;JLqJ4b ChMk0b&quot;&gt;&lt;span class=&quot;Q4iAWc&quot;&gt;Enter the number...&lt;/span&gt;&lt;/span&gt;&lt;/span&gt;&lt;/font&gt;" style="strokeWidth=1;shadow=0;dashed=0;align=center;html=1;shape=mxgraph.mockup.text.textBox;fontColor=#666666;align=left;fontSize=17;spacingLeft=4;spacingTop=-3;strokeColor=#666666;mainText=" vertex="1" parent="1">
          <mxGeometry x="71" y="620" width="150" height="30" as="geometry" />
        </mxCell>
        <mxCell id="YI7GslZMMDPhXBftqcw5-26" value="Guess" style="strokeWidth=1;shadow=0;dashed=0;align=center;html=1;shape=mxgraph.mockup.buttons.button;strokeColor=#666666;fontColor=#ffffff;mainText=;buttonStyle=round;fontSize=17;fontStyle=1;fillColor=#008cff;whiteSpace=wrap;" vertex="1" parent="1">
          <mxGeometry x="71" y="670" width="150" height="50" as="geometry" />
        </mxCell>
        <mxCell id="YI7GslZMMDPhXBftqcw5-27" value="You lost!" style="strokeWidth=1;shadow=0;dashed=0;align=center;html=1;shape=mxgraph.mockup.containers.rrect;rSize=0;strokeColor=#666666;fontColor=#666666;fontSize=17;verticalAlign=top;whiteSpace=wrap;fillColor=#ffffff;spacingTop=32;" vertex="1" parent="1">
          <mxGeometry x="481" y="920" width="250" height="160" as="geometry" />
        </mxCell>
        <mxCell id="YI7GslZMMDPhXBftqcw5-28" value="Result" style="strokeWidth=1;shadow=0;dashed=0;align=center;html=1;shape=mxgraph.mockup.containers.rrect;rSize=0;fontSize=17;fontColor=#666666;strokeColor=#666666;align=left;spacingLeft=8;fillColor=#ffffff;resizeWidth=1;" vertex="1" parent="YI7GslZMMDPhXBftqcw5-27">
          <mxGeometry width="250" height="30" relative="1" as="geometry" />
        </mxCell>
        <mxCell id="YI7GslZMMDPhXBftqcw5-29" value="" style="shape=ellipse;strokeColor=#008cff;resizable=0;fillColor=none;html=1;strokeWidth=1;fontSize=12;fontColor=#3333FF;" vertex="1" parent="YI7GslZMMDPhXBftqcw5-28">
          <mxGeometry x="1" y="0.5" width="20" height="20" relative="1" as="geometry">
            <mxPoint x="-25" y="-10" as="offset" />
          </mxGeometry>
        </mxCell>
        <mxCell id="YI7GslZMMDPhXBftqcw5-30" value="OK" style="strokeWidth=1;shadow=0;dashed=0;align=center;html=1;shape=mxgraph.mockup.containers.rrect;rSize=0;fontSize=16;fontColor=#666666;strokeColor=#c4c4c4;resizable=0;whiteSpace=wrap;fillColor=#ffffff;" vertex="1" parent="YI7GslZMMDPhXBftqcw5-27">
          <mxGeometry x="0.5" y="1" width="120" height="25" relative="1" as="geometry">
            <mxPoint x="-60" y="-33" as="offset" />
          </mxGeometry>
        </mxCell>
        <mxCell id="YI7GslZMMDPhXBftqcw5-31" value="Entered previously numbers" style="swimlane;childLayout=stackLayout;resizeParent=1;resizeParentMax=0;startSize=20;horizontal=0;horizontalStack=1;strokeWidth=1;fontSize=12;fontColor=#3333FF;" vertex="1" parent="1">
          <mxGeometry x="251" y="540" width="480" height="280" as="geometry" />
        </mxCell>
        <mxCell id="YI7GslZMMDPhXBftqcw5-32" value="Less of the desired number" style="swimlane;startSize=20;strokeWidth=1;fontSize=12;fontColor=#3333FF;" vertex="1" parent="YI7GslZMMDPhXBftqcw5-31">
          <mxGeometry x="20" width="170" height="280" as="geometry" />
        </mxCell>
        <mxCell id="YI7GslZMMDPhXBftqcw5-33" value="The desired number" style="swimlane;startSize=20;strokeWidth=1;fontSize=12;fontColor=#3333FF;" vertex="1" parent="YI7GslZMMDPhXBftqcw5-31">
          <mxGeometry x="190" width="120" height="280" as="geometry" />
        </mxCell>
        <mxCell id="YI7GslZMMDPhXBftqcw5-34" value="More of the desired number" style="swimlane;startSize=20;strokeWidth=1;fontSize=12;fontColor=#3333FF;" vertex="1" parent="YI7GslZMMDPhXBftqcw5-31">
          <mxGeometry x="310" width="170" height="280" as="geometry" />
        </mxCell>
        <mxCell id="YI7GslZMMDPhXBftqcw5-37" value="" style="edgeStyle=elbowEdgeStyle;elbow=vertical;endArrow=classic;html=1;rounded=0;fontSize=12;fontColor=#3333FF;exitX=0.493;exitY=0.98;exitDx=0;exitDy=0;exitPerimeter=0;entryX=0.478;entryY=0.003;entryDx=0;entryDy=0;entryPerimeter=0;" edge="1" parent="1" source="YI7GslZMMDPhXBftqcw5-14" target="YI7GslZMMDPhXBftqcw5-16">
          <mxGeometry width="50" height="50" relative="1" as="geometry">
            <mxPoint x="390" y="760" as="sourcePoint" />
            <mxPoint x="440" y="710" as="targetPoint" />
            <Array as="points">
              <mxPoint x="390" y="460" />
            </Array>
          </mxGeometry>
        </mxCell>
        <mxCell id="YI7GslZMMDPhXBftqcw5-38" value="" style="edgeStyle=elbowEdgeStyle;elbow=vertical;endArrow=classic;html=1;rounded=0;fontSize=12;fontColor=#3333FF;entryX=0.672;entryY=-0.067;entryDx=0;entryDy=0;entryPerimeter=0;" edge="1" parent="1" target="YI7GslZMMDPhXBftqcw5-28">
          <mxGeometry width="50" height="50" relative="1" as="geometry">
            <mxPoint x="560" y="860" as="sourcePoint" />
            <mxPoint x="440" y="710" as="targetPoint" />
            <Array as="points">
              <mxPoint x="640" y="880" />
            </Array>
          </mxGeometry>
        </mxCell>
        <mxCell id="YI7GslZMMDPhXBftqcw5-39" value="" style="edgeStyle=elbowEdgeStyle;elbow=vertical;endArrow=classic;html=1;rounded=0;fontSize=12;fontColor=#3333FF;exitX=0.413;exitY=1;exitDx=0;exitDy=0;exitPerimeter=0;entryX=0.056;entryY=0;entryDx=0;entryDy=0;entryPerimeter=0;" edge="1" parent="1" source="YI7GslZMMDPhXBftqcw5-26" target="YI7GslZMMDPhXBftqcw5-5">
          <mxGeometry width="50" height="50" relative="1" as="geometry">
            <mxPoint x="180" y="1120" as="sourcePoint" />
            <mxPoint x="230" y="1160" as="targetPoint" />
            <Array as="points">
              <mxPoint x="210" y="880" />
            </Array>
          </mxGeometry>
        </mxCell>
        <mxCell id="YI7GslZMMDPhXBftqcw5-40" value="" style="edgeStyle=elbowEdgeStyle;elbow=vertical;endArrow=classic;html=1;rounded=0;fontSize=12;fontColor=#3333FF;exitX=1.025;exitY=0.44;exitDx=0;exitDy=0;exitPerimeter=0;" edge="1" parent="1" source="YI7GslZMMDPhXBftqcw5-30" target="YI7GslZMMDPhXBftqcw5-3">
          <mxGeometry width="50" height="50" relative="1" as="geometry">
            <mxPoint x="390" y="700" as="sourcePoint" />
            <mxPoint x="440" y="650" as="targetPoint" />
            <Array as="points">
              <mxPoint x="800" y="700" />
            </Array>
          </mxGeometry>
        </mxCell>
        <mxCell id="YI7GslZMMDPhXBftqcw5-41" value="" style="edgeStyle=elbowEdgeStyle;elbow=vertical;endArrow=classic;html=1;rounded=0;fontSize=12;fontColor=#3333FF;exitX=0;exitY=0.48;exitDx=0;exitDy=0;exitPerimeter=0;entryX=-0.001;entryY=0.453;entryDx=0;entryDy=0;entryPerimeter=0;" edge="1" parent="1" source="YI7GslZMMDPhXBftqcw5-7" target="YI7GslZMMDPhXBftqcw5-3">
          <mxGeometry width="50" height="50" relative="1" as="geometry">
            <mxPoint x="390" y="850" as="sourcePoint" />
            <mxPoint x="20" y="430" as="targetPoint" />
            <Array as="points">
              <mxPoint x="10" y="620" />
            </Array>
          </mxGeometry>
        </mxCell>
        <mxCell id="YI7GslZMMDPhXBftqcw5-42" value="" style="edgeStyle=segmentEdgeStyle;endArrow=classic;html=1;rounded=0;fontSize=12;fontColor=#3333FF;exitX=0.5;exitY=0;exitDx=0;exitDy=0;entryX=0.939;entryY=1;entryDx=0;entryDy=0;entryPerimeter=0;" edge="1" parent="1" source="YI7GslZMMDPhXBftqcw5-29" target="YI7GslZMMDPhXBftqcw5-16">
          <mxGeometry width="50" height="50" relative="1" as="geometry">
            <mxPoint x="390" y="850" as="sourcePoint" />
            <mxPoint x="440" y="800" as="targetPoint" />
          </mxGeometry>
        </mxCell>
        <mxCell id="YI7GslZMMDPhXBftqcw5-43" value="" style="edgeStyle=segmentEdgeStyle;endArrow=classic;html=1;rounded=0;fontSize=12;fontColor=#3333FF;exitX=0.5;exitY=0;exitDx=0;exitDy=0;entryX=0.381;entryY=0.997;entryDx=0;entryDy=0;entryPerimeter=0;" edge="1" parent="1" source="YI7GslZMMDPhXBftqcw5-6" target="YI7GslZMMDPhXBftqcw5-16">
          <mxGeometry width="50" height="50" relative="1" as="geometry">
            <mxPoint x="390" y="850" as="sourcePoint" />
            <mxPoint x="440" y="800" as="targetPoint" />
          </mxGeometry>
        </mxCell>
        <mxCell id="YI7GslZMMDPhXBftqcw5-44" value="" style="edgeStyle=segmentEdgeStyle;endArrow=classic;html=1;rounded=0;fontSize=12;fontColor=#3333FF;entryX=0.064;entryY=1.003;entryDx=0;entryDy=0;entryPerimeter=0;" edge="1" parent="1" source="YI7GslZMMDPhXBftqcw5-21" target="YI7GslZMMDPhXBftqcw5-3">
          <mxGeometry width="50" height="50" relative="1" as="geometry">
            <mxPoint x="390" y="370" as="sourcePoint" />
            <mxPoint x="440" y="320" as="targetPoint" />
          </mxGeometry>
        </mxCell>
        <mxCell id="YI7GslZMMDPhXBftqcw5-45" value="" style="edgeStyle=elbowEdgeStyle;elbow=vertical;endArrow=classic;html=1;rounded=0;fontSize=12;fontColor=#3333FF;exitX=0.66;exitY=1;exitDx=0;exitDy=0;exitPerimeter=0;entryX=0.246;entryY=1.005;entryDx=0;entryDy=0;entryPerimeter=0;" edge="1" parent="1" source="YI7GslZMMDPhXBftqcw5-26" target="YI7GslZMMDPhXBftqcw5-16">
          <mxGeometry width="50" height="50" relative="1" as="geometry">
            <mxPoint x="390" y="790" as="sourcePoint" />
            <mxPoint x="440" y="740" as="targetPoint" />
            <Array as="points">
              <mxPoint x="190" y="880" />
            </Array>
          </mxGeometry>
        </mxCell>
      </root>
    </mxGraphModel>
  </diagram>
</mxfile>
